<?xml version="1.0" encoding="UTF-8"?> <svg xmlns="http://www.w3.org/2000/svg" width="118" height="17" viewBox="0 0 118 17" fill="none"> <path d="M6.876 0.511999C7.90267 0.511999 8.768 0.647666 9.472 0.918999C10.176 1.183 10.836 1.56433 11.452 2.063L10.121 3.647C9.219 2.899 8.17767 2.525 6.997 2.525C6.24167 2.525 5.545 2.71567 4.907 3.097C4.269 3.47833 3.75567 4.098 3.367 4.956C2.98567 5.814 2.795 6.958 2.795 8.388C2.795 9.78867 2.97833 10.918 3.345 11.776C3.71167 12.634 4.21033 13.2573 4.841 13.646C5.479 14.0347 6.19767 14.229 6.997 14.229C7.811 14.229 8.48567 14.097 9.021 13.833C9.55633 13.5617 10.0293 13.2573 10.44 12.92L11.672 14.493C11.166 14.9843 10.5243 15.4097 9.747 15.769C8.96967 16.121 8.02367 16.297 6.909 16.297C5.61833 16.297 4.46333 15.9963 3.444 15.395C2.42467 14.7937 1.618 13.9063 1.024 12.733C0.437333 11.5523 0.144 10.104 0.144 8.388C0.144 6.68667 0.448333 5.253 1.057 4.087C1.66567 2.91367 2.476 2.02633 3.488 1.425C4.50733 0.816332 5.63667 0.511999 6.876 0.511999ZM23.3564 0.819999V2.767H20.0784V14.042H23.3564V16H14.2264V14.042H17.5044V2.767H14.2264V0.819999H23.3564ZM33.2258 2.877V16H30.6738V2.877H26.1198V0.819999H37.8898L37.6258 2.877H33.2258ZM46.4612 10.203V16H43.8872V10.225L38.8272 0.819999H41.6322L45.2292 8.014L48.8482 0.819999H51.5212L46.4612 10.203Z" fill="white"></path> <path d="M54.3946 16V0.819999H56.9466V13.866H63.7446L63.4696 16H54.3946ZM76.122 0.819999V2.767H72.844V14.042H76.122V16H66.992V14.042H70.27V2.767H66.992V0.819999H76.122ZM85.1444 16.297C83.2084 16.297 81.6941 15.6333 80.6014 14.306C79.5088 12.9787 78.9624 11.006 78.9624 8.388C78.9624 6.65733 79.2668 5.209 79.8754 4.043C80.4914 2.86967 81.3018 1.98967 82.3064 1.403C83.3111 0.808999 84.4038 0.511999 85.5844 0.511999C86.6184 0.511999 87.4801 0.665999 88.1694 0.973999C88.8661 1.282 89.5114 1.711 90.1054 2.261L88.6754 3.746C88.2134 3.328 87.7404 3.01633 87.2564 2.811C86.7798 2.60567 86.2444 2.503 85.6504 2.503C84.9391 2.503 84.2791 2.69367 83.6704 3.075C83.0618 3.449 82.5704 4.06867 82.1964 4.934C81.8224 5.792 81.6354 6.947 81.6354 8.399C81.6354 10.5183 81.9398 12.0327 82.5484 12.942C83.1571 13.8513 84.0628 14.306 85.2654 14.306C86.1601 14.306 86.9961 14.0933 87.7734 13.668V9.488H85.1994L84.9244 7.541H90.2484V14.9C89.5298 15.3107 88.7634 15.648 87.9494 15.912C87.1428 16.1687 86.2078 16.297 85.1444 16.297ZM100.415 16V9.103H95.4648V16H92.9128V0.819999H95.4648V7.002H100.415V0.819999H102.967V16H100.415ZM112.374 2.877V16H109.822V2.877H105.268V0.819999H117.038L116.774 2.877H112.374Z" fill="#FF5E55"></path> </svg> 