<?xml version="1.0" encoding="UTF-8"?> <svg xmlns="http://www.w3.org/2000/svg" width="96" height="86" viewBox="0 0 96 86" fill="none"> <path d="M74.1358 21.7094L74.3606 26.4852L78.926 27.9052L77.907 32.5765L81.9494 35.1296L79.7561 39.378L82.9999 42.8904L79.7818 46.4264L82.0061 50.6586L77.9824 53.2412L79.0355 57.905L74.4805 59.3581L74.2906 64.1355L69.5148 64.3603L68.0948 68.9257L63.4235 67.9067L60.8704 71.9491L56.622 69.7558L53.1096 72.9997L49.5736 69.7815L45.3414 72.0058L42.7588 67.9821L38.095 69.0352L36.6419 64.4802L31.8645 64.2903L31.6397 59.5145L27.0743 58.0946L28.0933 53.4233L24.0509 50.8701L26.2442 46.6217L23.0003 43.1093L26.2185 39.5733L23.9942 35.3411L28.0179 32.7585L26.9648 28.0948L31.5198 26.6416L31.7097 21.8642L36.4855 21.6394L37.9054 17.074L42.5767 18.093L45.1299 14.0506L49.3783 16.2439L52.8907 13.0001L56.4267 16.2182L60.6589 13.9939L63.2415 18.0176L67.9052 16.9645L69.3584 21.5195L74.1358 21.7094Z" fill="#19181D"></path> <path d="M73.8611 26.5088L73.8776 26.8587L74.2121 26.9627L78.3398 28.2465L77.4185 32.4699L77.3439 32.8121L77.64 32.9992L81.2948 35.3076L79.3118 39.1486L79.1511 39.4599L79.3888 39.7172L82.3216 42.8929L79.4121 46.0898L79.1763 46.3489L79.3392 46.659L81.3502 50.4855L77.7123 52.8204L77.4176 53.0097L77.4947 53.3513L78.4468 57.5679L74.3285 58.8818L73.9948 58.9883L73.9809 59.3383L73.8092 63.6576L69.4912 63.8608L69.1413 63.8773L69.0373 64.2118L67.7535 68.3395L63.5301 67.4182L63.1879 67.3436L63.0008 67.6397L60.6924 71.2945L56.8514 69.3115L56.5401 69.1508L56.2828 69.3885L53.1071 72.3213L49.9102 69.4118L49.6511 69.176L49.341 69.3389L45.5145 71.3499L43.1796 67.7121L42.9903 67.4173L42.6487 67.4944L38.4321 68.4465L37.1182 64.3283L37.0117 63.9945L36.6617 63.9806L32.3424 63.8089L32.1392 59.491L32.1227 59.1411L31.7882 59.037L27.6605 57.7532L28.5818 53.5298L28.6564 53.1876L28.3603 53.0005L24.7055 50.6922L26.6885 46.8511L26.8492 46.5398L26.6115 46.2825L23.6787 43.1068L26.5882 39.9099L26.824 39.6508L26.6611 39.3407L24.6501 35.5142L28.2879 33.1793L28.5827 32.9901L28.5056 32.6484L27.5535 28.4318L31.6717 27.1179L32.0055 27.0114L32.0194 26.6614L32.1911 22.3421L36.509 22.1389L36.8589 22.1224L36.963 21.7879L38.2468 17.6602L42.4702 18.5815L42.8124 18.6561L42.9995 18.36L45.3078 14.7052L49.1489 16.6882L49.4602 16.8489L49.7175 16.6112L52.8932 13.6784L56.0901 16.5879L56.3492 16.8237L56.6593 16.6608L60.4858 14.6498L62.8207 18.2877L63.0099 18.5824L63.3516 18.5053L67.5682 17.5532L68.8821 21.6715L68.9886 22.0052L69.3386 22.0191L73.6579 22.1908L73.8611 26.5088Z" stroke="white" stroke-opacity="0.25"></path> <path d="M42.1606 13.1349L45.9748 16.0178L49.9871 13.4176L52.9252 17.1894L57.4737 15.7162L59.3354 20.12L64.1103 19.8743L64.7688 24.6098L69.4445 25.6083L68.855 30.353L73.113 32.5275L71.3155 36.9579L74.8656 40.1605L71.9827 43.9747L74.5829 47.987L70.8111 50.9251L72.2843 55.4736L67.8805 57.3354L68.1262 62.1102L63.3907 62.7687L62.3922 67.4445L57.6475 66.8549L55.4729 71.1129L51.0425 69.3154L47.84 72.8655L44.0258 69.9826L40.0135 72.5828L37.0754 68.811L32.5269 70.2842L30.6651 65.8804L25.8903 66.1261L25.2318 61.3906L20.556 60.3921L21.1456 55.6475L16.8876 53.4729L18.6851 49.0425L15.135 45.8399L18.0179 42.0257L15.4177 38.0134L19.1895 35.0753L17.7163 30.5268L22.1201 28.665L21.8744 23.8902L26.6099 23.2317L27.6084 18.5559L32.353 19.1455L34.5276 14.8875L38.958 16.685L42.1606 13.1349Z" fill="#19181D"></path> <path d="M45.6733 16.4167L45.9528 16.6279L46.2467 16.4374L49.8743 14.0865L52.5307 17.4967L52.746 17.773L53.0792 17.6651L57.1916 16.3332L58.8749 20.3147L59.0113 20.6374L59.3611 20.6193L63.6782 20.3972L64.2736 24.6787L64.3218 25.0257L64.6644 25.0988L68.8918 26.0015L68.3588 30.2913L68.3156 30.6389L68.6276 30.7982L72.4773 32.7643L70.8522 36.77L70.7205 37.0946L70.9806 37.3292L74.1903 40.2247L71.5838 43.6732L71.3726 43.9527L71.5631 44.2466L73.914 47.8742L70.5038 50.5306L70.2275 50.7459L70.3354 51.0791L71.6673 55.1916L67.6858 56.8748L67.3631 57.0112L67.3811 57.3611L67.6033 61.6781L63.3218 62.2735L62.9748 62.3217L62.9017 62.6643L61.999 66.8917L57.7092 66.3587L57.3616 66.3155L57.2023 66.6275L55.2362 70.4772L51.2305 68.8521L50.9059 68.7204L50.6713 68.9805L47.7758 72.1902L44.3273 69.5837L44.0478 69.3725L43.7539 69.563L40.1263 71.9139L37.4699 68.5037L37.2546 68.2274L36.9214 68.3353L32.8089 69.6672L31.1257 65.6857L30.9893 65.3631L30.6394 65.3811L26.3224 65.6032L25.727 61.3217L25.6787 60.9747L25.3362 60.9016L21.1087 59.9989L21.6418 55.7091L21.685 55.3615L21.373 55.2022L17.5233 53.2361L19.1484 49.2304L19.2801 48.9058L19.02 48.6712L15.8103 45.7757L18.4168 42.3272L18.628 42.0477L18.4375 41.7538L16.0866 38.1262L19.4968 35.4698L19.7731 35.2545L19.6652 34.9213L18.3332 30.8088L22.3148 29.1256L22.6374 28.9892L22.6194 28.6393L22.3973 24.3223L26.6788 23.7269L27.0258 23.6787L27.0989 23.3361L28.0016 19.1087L32.2914 19.6417L32.639 19.6849L32.7983 19.3729L34.7644 15.5232L38.7701 17.1483L39.0947 17.28L39.3293 17.0199L42.2248 13.8102L45.6733 16.4167Z" stroke="white" stroke-opacity="0.5"></path> <path d="M46.1631 14.1321L48.6752 18.2001L53.3566 17.2285L54.7302 21.8081L59.5036 22.0812L59.6451 26.8602L64.1851 28.3595L63.0849 33.0123L67.0822 35.6355L64.8152 39.845L67.9974 43.4134L64.7182 46.8928L66.8683 51.1631L62.8003 53.6752L63.772 58.3566L59.1924 59.7302L58.9193 64.5036L54.1402 64.6451L52.641 69.1851L47.9882 68.0849L45.365 72.0822L41.1555 69.8152L37.5871 72.9974L34.1077 69.7182L29.8373 71.8683L27.3252 67.8003L22.6439 68.772L21.2702 64.1924L16.4969 63.9193L16.3554 59.1402L11.8154 57.641L12.9156 52.9882L8.91828 50.365L11.1852 46.1555L8.00308 42.5871L11.2823 39.1077L9.13214 34.8373L13.2002 32.3252L12.2285 27.6439L16.8081 26.2702L17.0812 21.4969L21.8602 21.3554L23.3595 16.8154L28.0123 17.9156L30.6355 13.9183L34.845 16.1852L38.4134 13.0031L41.8928 16.2823L46.1631 14.1321Z" fill="#19181D"></path> <path d="M48.2498 18.4629L48.4339 18.7609L48.7769 18.6897L53.0094 17.8112L54.2513 21.9517L54.3519 22.2873L54.7017 22.3073L59.0174 22.5542L59.1453 26.875L59.1557 27.2252L59.4883 27.335L63.593 28.6905L62.5983 32.8972L62.5177 33.2381L62.8106 33.4303L66.4246 35.802L64.375 39.6079L64.2089 39.9164L64.4421 40.1778L67.3191 43.404L64.3543 46.5498L64.1141 46.8047L64.2716 47.1176L66.2156 50.9786L62.5376 53.2498L62.2396 53.4339L62.3108 53.7768L63.1892 58.0094L59.0487 59.2513L58.7132 59.3519L58.6932 59.7017L58.4463 64.0174L54.1254 64.1453L53.7753 64.1557L53.6655 64.4883L52.31 68.593L48.1032 67.5983L47.7623 67.5177L47.5702 67.8106L45.1985 71.4246L41.3925 69.375L41.0841 69.2089L40.8227 69.4421L37.5964 72.3191L34.4507 69.3543L34.1957 69.1141L33.8829 69.2716L30.0219 71.2156L27.7507 67.5376L27.5666 67.2396L27.2236 67.3108L22.9911 68.1892L21.7492 64.0487L21.6485 63.7132L21.2988 63.6932L16.9831 63.4463L16.8552 59.1254L16.8448 58.7753L16.5122 58.6655L12.4074 57.31L13.4021 53.1032L13.4828 52.7623L13.1899 52.5702L9.57586 50.1985L11.6255 46.3925L11.7915 46.0841L11.5584 45.8227L8.68135 42.5964L11.6462 39.4506L11.8864 39.1957L11.7289 38.8829L9.78488 35.0219L13.4629 32.7507L13.7609 32.5666L13.6897 32.2236L12.8112 27.9911L16.9517 26.7492L17.2873 26.6485L17.3073 26.2988L17.5542 21.9831L21.875 21.8552L22.2252 21.8448L22.335 21.5122L23.6905 17.4074L27.8972 18.4021L28.2381 18.4828L28.4303 18.1899L30.802 14.5759L34.6079 16.6255L34.9164 16.7915L35.1778 16.5584L38.404 13.6813L41.5498 16.6462L41.8047 16.8864L42.1176 16.7289L45.9786 14.7849L48.2498 18.4629Z" stroke="white" stroke-opacity="0.75"></path> <path d="M34.1864 16.5995L34.4446 16.8363L34.7553 16.6744L38.5891 14.6774L40.9108 18.3238L41.0989 18.6193L41.4409 18.5434L45.661 17.6067L46.9598 21.7297L47.065 22.0638L47.415 22.079L51.7337 22.2664L51.9211 26.5851L51.9363 26.9351L52.2704 27.0403L56.3934 28.3392L55.4567 32.5592L55.3808 32.9012L55.6763 33.0893L59.3227 35.411L57.3257 39.2448L57.1639 39.5555L57.4006 39.8137L60.3218 43L57.4006 46.1863L57.1639 46.4445L57.3257 46.7552L59.3227 50.589L55.6763 52.9107L55.3808 53.0988L55.4567 53.4408L56.3934 57.6608L52.2704 58.9597L51.9363 59.0649L51.9211 59.4149L51.7337 63.7336L47.415 63.921L47.065 63.9362L46.9598 64.2703L45.661 68.3933L41.4409 67.4566L41.0989 67.3807L40.9108 67.6762L38.5891 71.3226L34.7553 69.3256L34.4446 69.1637L34.1864 69.4005L31.0001 72.3217L27.8138 69.4005L27.5556 69.1637L27.2449 69.3256L23.4111 71.3226L21.0894 67.6762L20.9013 67.3807L20.5593 67.4566L16.3393 68.3933L15.0405 64.2703L14.9352 63.9362L14.5852 63.921L10.2666 63.7336L10.0791 59.4149L10.0639 59.0649L9.72981 58.9597L5.60681 57.6608L6.5435 53.4408L6.6194 53.0988L6.32392 52.9107L2.67756 50.589L4.67456 46.7552L4.83638 46.4445L4.59966 46.1863L1.67845 43L4.59966 39.8137L4.83638 39.5555L4.67456 39.2448L2.67756 35.411L6.32392 33.0893L6.6194 32.9012L6.5435 32.5592L5.60681 28.3392L9.72981 27.0403L10.0639 26.9351L10.0791 26.5851L10.2666 22.2664L14.5852 22.079L14.9352 22.0638L15.0405 21.7297L16.3393 17.6067L20.5593 18.5434L20.9013 18.6193L21.0894 18.3238L23.4111 14.6774L27.2449 16.6744L27.5556 16.8363L27.8138 16.5995L31.0001 13.6783L34.1864 16.5995Z" fill="#19181D" stroke="white"></path> </svg> 