<?xml version="1.0" encoding="UTF-8"?> <svg xmlns="http://www.w3.org/2000/svg" width="160" height="160" viewBox="0 0 160 160" fill="none"> <path d="M80 0L89.3979 8.61597L100.706 2.72594L107.553 13.4807L120 10.718L123.831 22.8786L136.569 23.4315L137.121 36.1692L149.282 40L146.519 52.4468L157.274 59.2945L151.384 70.6021L160 80L151.384 89.3979L157.274 100.706L146.519 107.553L149.282 120L137.121 123.831L136.569 136.569L123.831 137.121L120 149.282L107.553 146.519L100.706 157.274L89.3979 151.384L80 160L70.6021 151.384L59.2945 157.274L52.4468 146.519L40 149.282L36.1692 137.121L23.4315 136.569L22.8786 123.831L10.718 120L13.4807 107.553L2.72594 100.706L8.61597 89.3979L0 80L8.61597 70.6021L2.72594 59.2945L13.4807 52.4468L10.718 40L22.8786 36.1692L23.4315 23.4315L36.1692 22.8786L40 10.718L52.4468 13.4807L59.2945 2.72594L70.6021 8.61597L80 0Z" fill="#FF5147"></path> </svg> 