<?xml version="1.0" encoding="UTF-8"?> <svg xmlns="http://www.w3.org/2000/svg" width="144" height="144" viewBox="0 0 144 144" fill="none"> <path d="M130.599 80.079C129.998 80.0349 129.504 79.8783 129.118 79.6092C128.736 79.3459 128.44 79.006 128.23 78.5895C128.02 78.1783 127.879 77.7241 127.809 77.227C127.743 76.7355 127.729 76.2371 127.766 75.7318L127.983 72.7798L138.969 73.5865L138.771 76.2912C138.736 76.7699 138.656 77.2373 138.531 77.6934C138.412 78.1499 138.233 78.5565 137.993 78.9132C137.758 79.2703 137.454 79.5448 137.082 79.7368C136.709 79.934 136.254 80.0129 135.717 79.9734C135.243 79.9387 134.849 79.8108 134.534 79.5898C134.223 79.3745 133.981 79.1027 133.808 78.7744C133.633 78.4515 133.519 78.1115 133.465 77.7546C133.366 78.1538 133.21 78.538 132.996 78.9073C132.786 79.2823 132.489 79.5813 132.104 79.8044C131.718 80.0328 131.216 80.1243 130.599 80.079ZM135.749 78.548C136.372 78.5937 136.827 78.432 137.117 78.0628C137.411 77.6994 137.582 77.1852 137.631 76.5203L137.751 74.8847L134.193 74.6235L134.062 76.3947C134.015 77.0436 134.122 77.5515 134.384 77.9183C134.651 78.2908 135.106 78.5007 135.749 78.548ZM130.659 78.6154C131.212 78.656 131.645 78.5782 131.959 78.382C132.278 78.1915 132.509 77.9224 132.652 77.5746C132.795 77.2268 132.883 76.8402 132.914 76.4146L133.052 74.5397L129.022 74.2438L128.889 76.055C128.863 76.4167 128.884 76.7872 128.952 77.1665C129.026 77.5463 129.192 77.8713 129.45 78.1416C129.713 78.4176 130.116 78.5756 130.659 78.6154Z" fill="#FF5E55"></path> <path d="M137.84 83.97L133.845 83.0649L133.622 84.048C133.327 85.3535 132.823 86.262 132.111 86.7733C131.399 87.2846 130.512 87.4201 129.451 87.1796C128.286 86.9156 127.494 86.3833 127.073 85.5827C126.659 84.7832 126.59 83.7723 126.866 82.55L127.407 80.1625L138.151 82.5968L137.84 83.97ZM136.249 90.992L125.505 88.5577L125.816 87.1845L136.56 89.6188L136.249 90.992ZM132.559 83.9628L132.815 82.8315L128.181 81.7814L127.921 82.9284C127.755 83.6618 127.804 84.2636 128.07 84.7339C128.339 85.2105 128.903 85.546 129.761 85.7405C131.28 86.0846 132.213 85.4921 132.559 83.9628Z" fill="#FF5E55"></path> <path d="M134.456 96.229C134.171 96.9539 133.811 97.5346 133.377 97.9713C132.945 98.4148 132.472 98.6992 131.959 98.8243C131.449 98.9564 130.931 98.9192 130.404 98.7127C129.774 98.4653 129.355 98.0575 129.148 97.4894C128.945 96.9281 128.916 96.344 129.063 95.7369C128.855 96.1483 128.579 96.5012 128.235 96.7956C127.893 97.097 127.495 97.2932 127.041 97.3843C126.587 97.4754 126.094 97.4167 125.563 97.2083C124.953 96.9686 124.466 96.5945 124.104 96.0858C123.741 95.5821 123.532 94.9818 123.479 94.2849C123.431 93.5899 123.566 92.8378 123.883 92.0286C124.168 91.3037 124.558 90.6807 125.055 90.1595C125.55 89.6432 126.118 89.2532 126.76 88.9896L127.163 90.0669C126.657 90.3327 126.219 90.6619 125.847 91.0546C125.475 91.4472 125.181 91.9191 124.965 92.4702C124.651 93.2695 124.595 93.9607 124.796 94.5437C125 95.1336 125.422 95.5542 126.062 95.8056C126.752 96.0764 127.338 96.0428 127.82 95.7049C128.308 95.369 128.685 94.8584 128.954 94.1733L129.667 92.3562L130.704 92.9347L130.09 94.4986C129.94 94.8809 129.856 95.2633 129.838 95.6457C129.824 96.03 129.898 96.3742 130.06 96.6782C130.224 96.9891 130.505 97.2225 130.902 97.3783C131.448 97.5927 131.942 97.5399 132.382 97.2201C132.823 96.9003 133.166 96.4276 133.411 95.8021C133.635 95.2311 133.742 94.6971 133.731 94.2C133.72 93.7029 133.638 93.2038 133.485 92.7026L134.546 92.2767C134.769 92.9488 134.874 93.6087 134.86 94.2565C134.85 94.9112 134.715 95.5687 134.456 96.229Z" fill="#FF5E55"></path> <path d="M121.043 104.872C120.521 104.571 120.144 104.216 119.912 103.805C119.683 103.402 119.564 102.968 119.556 102.501C119.545 102.039 119.615 101.569 119.768 101.091C119.922 100.62 120.126 100.165 120.379 99.7256L121.856 97.1606L131.402 102.658L130.049 105.009C129.809 105.424 129.534 105.811 129.224 106.168C128.918 106.527 128.58 106.815 128.209 107.032C127.842 107.252 127.45 107.368 127.031 107.379C126.609 107.395 126.165 107.268 125.699 106.999C125.287 106.762 124.988 106.476 124.8 106.14C124.613 105.811 124.513 105.461 124.499 105.09C124.483 104.723 124.528 104.368 124.634 104.023C124.372 104.339 124.064 104.617 123.71 104.857C123.359 105.104 122.961 105.244 122.517 105.278C122.071 105.316 121.579 105.181 121.043 104.872ZM126.347 105.729C126.888 106.041 127.368 106.093 127.789 105.886C128.212 105.686 128.59 105.298 128.922 104.72L129.741 103.299L126.649 101.518L125.763 103.057C125.438 103.621 125.314 104.125 125.39 104.569C125.469 105.02 125.788 105.407 126.347 105.729ZM121.732 103.579C122.213 103.856 122.637 103.974 123.005 103.934C123.375 103.901 123.7 103.759 123.98 103.507C124.26 103.256 124.506 102.946 124.719 102.576L125.658 100.947L122.157 98.9308L121.25 100.504C121.069 100.819 120.927 101.162 120.824 101.533C120.726 101.907 120.734 102.272 120.849 102.628C120.966 102.991 121.261 103.308 121.732 103.579Z" fill="#FF5E55"></path> <path d="M116.271 110.383L118.988 106.973L117.34 104.535L118.192 103.465L124.576 113.132L123.469 114.521L112.62 110.461L113.527 109.322L116.271 110.383ZM119.665 107.972L117.397 110.819L123.129 113.074L119.665 107.972Z" fill="#FF5E55"></path> <path d="M115.805 120.783L109.116 113.589L110.129 112.646L116.819 119.84L119.338 117.498L120.15 118.371L114.063 124.031L113.356 123.06L115.805 120.783Z" fill="#FF5E55"></path> <path d="M110.733 126.395L108.43 123.027L107.063 123.962C105.967 124.711 104.954 125.077 104.025 125.06C103.094 125.05 102.294 124.554 101.622 123.572C101.141 122.868 100.904 122.196 100.913 121.557C100.921 120.925 101.122 120.332 101.518 119.777C101.914 119.222 102.453 118.711 103.136 118.245L105.659 116.52L111.875 125.614L110.733 126.395ZM106.282 123.159L107.807 122.116L105.153 118.232L103.634 119.271C103.229 119.548 102.902 119.849 102.652 120.174C102.402 120.507 102.28 120.881 102.286 121.297C102.292 121.712 102.478 122.187 102.842 122.719C103.161 123.186 103.51 123.493 103.889 123.641C104.266 123.797 104.656 123.824 105.059 123.723C105.465 123.627 105.872 123.438 106.282 123.159Z" fill="#FF5E55"></path> <path d="M95.4353 134.783C94.767 135.051 94.1739 135.191 93.656 135.203C93.138 135.216 92.6106 135.14 92.0736 134.976L92.4573 133.848C92.8883 133.991 93.3073 134.048 93.7143 134.016C94.1183 133.992 94.5159 133.902 94.9069 133.745C95.4663 133.521 95.93 133.179 96.2979 132.722C96.6679 132.269 96.8758 131.677 96.9217 130.946C96.9646 130.222 96.7766 129.337 96.3576 128.293C95.9506 127.278 95.4879 126.519 94.9694 126.014C94.446 125.511 93.8946 125.218 93.3152 125.135C92.7357 125.051 92.1564 125.125 91.5773 125.358C91.008 125.586 90.5725 125.861 90.2708 126.183C89.9641 126.507 89.7217 126.835 89.5438 127.165L88.536 126.586C88.7267 126.159 89.0274 125.734 89.438 125.311C89.8506 124.892 90.4207 124.537 91.1484 124.245C91.98 123.912 92.8103 123.811 93.6394 123.944C94.4704 124.082 95.2393 124.466 95.9461 125.096C96.6528 125.727 97.2355 126.614 97.6941 127.757C98.1547 128.905 98.3439 129.95 98.2616 130.891C98.1763 131.839 97.8815 132.644 97.377 133.306C96.8745 133.973 96.2273 134.465 95.4353 134.783Z" fill="#FF5E55"></path> <path d="M82.026 127.012L84.2661 136.561L88.3162 135.611L86.076 126.062L87.4234 125.746L89.9395 136.471L83.1946 138.053L80.6786 127.328L82.026 127.012Z" fill="#FF5E55"></path> <path d="M77.8812 137.516L77.5809 133.817L73.5143 134.147L73.4217 133.006L77.4883 132.676L77.1718 128.777L72.1802 129.182L72.0902 128.074L78.4693 127.556L79.3606 138.536L73.1251 139.042L73.1926 137.897L77.8812 137.516Z" fill="#FF5E55"></path> <path d="M70.4674 128.009L69.6607 138.996L68.2805 138.894L69.0028 129.057L64.8539 128.752L64.1316 138.59L62.7513 138.488L63.558 127.502L70.4674 128.009ZM62.4917 128.587L62.7489 125.084L63.842 125.164L63.9091 127.528L64.2522 127.553L64.0635 128.702L62.4917 128.587Z" fill="#FF5E55"></path> <path d="M62.0381 127.226L59.6038 137.97L58.2618 137.666L59.4922 132.236C59.636 131.601 59.7713 131.052 59.8982 130.589C60.0199 130.124 60.1431 129.701 60.2679 129.319C60.3863 128.941 60.5143 128.557 60.6519 128.167L54.5869 136.833L52.8471 136.439L55.2814 125.696L56.6233 126L55.3912 131.438C55.205 132.26 55.0112 133.006 54.81 133.677C54.6025 134.351 54.4141 134.929 54.2449 135.411L60.2748 126.827L62.0381 127.226Z" fill="#FF5E55"></path> <path d="M47.5888 125.762L51.6474 127.354L53.4924 125.062L54.7658 125.562L47.4053 134.507L45.7521 133.858L46.44 122.294L47.7954 122.826L47.5888 125.762ZM50.8915 128.295L47.503 126.965L47.0352 133.107L50.8915 128.295Z" fill="#FF5E55"></path> <path d="M34.5254 128.034L40.0232 118.488L41.2225 119.179L36.3196 127.692L38.8915 129.173L40.8533 126.537C41.4726 125.718 42.0107 125.04 42.4677 124.503C42.9246 123.966 43.3309 123.538 43.6866 123.22C44.0422 122.902 44.3718 122.661 44.6753 122.497C44.9762 122.338 45.2766 122.228 45.5765 122.167C45.8691 122.108 46.1894 122.064 46.5374 122.037L46.5492 123.235C46.3222 123.276 46.0941 123.336 45.865 123.413C45.6312 123.488 45.3631 123.638 45.0607 123.864C44.7583 124.09 44.3863 124.442 43.9447 124.92C43.5032 125.398 42.9562 126.064 42.3037 126.92L39.3434 130.809L34.5254 128.034Z" fill="#FF5E55"></path> <path d="M38.7918 117.571L31.9281 126.187L30.8518 125.33L34.3211 120.975C34.7265 120.466 35.0871 120.03 35.4028 119.668C35.7144 119.303 36.0094 118.975 36.2879 118.686C36.5588 118.397 36.841 118.107 37.1344 117.816L27.9046 122.982L26.5092 121.871L33.373 113.254L34.4492 114.112L30.975 118.473C30.45 119.132 29.951 119.72 29.4781 120.237C28.9978 120.754 28.5768 121.193 28.2152 121.552L37.3777 116.444L38.7918 117.571Z" fill="#FF5E55"></path> <path d="M21.1048 116.574C20.6145 116.047 20.2705 115.544 20.0728 115.065C19.8751 114.586 19.7562 114.066 19.7162 113.506L20.9067 113.459C20.9279 113.913 21.0262 114.324 21.2015 114.693C21.3692 115.061 21.5965 115.399 21.8834 115.708C22.2938 116.149 22.7788 116.459 23.3384 116.638C23.894 116.821 24.5211 116.802 25.2197 116.582C25.9108 116.362 26.6683 115.869 27.4925 115.102C28.2931 114.358 28.8358 113.653 29.1203 112.988C29.4013 112.319 29.4766 111.699 29.3464 111.128C29.2162 110.557 28.9387 110.043 28.5138 109.587C28.0961 109.137 27.6827 108.83 27.2737 108.664C26.8609 108.494 26.4686 108.386 26.0968 108.338L26.2744 107.19C26.7414 107.214 27.2462 107.342 27.7888 107.573C28.3275 107.808 28.8637 108.212 29.3976 108.787C30.0077 109.443 30.3997 110.182 30.5737 111.003C30.7437 111.828 30.6616 112.684 30.3275 113.57C29.9934 114.456 29.3753 115.318 28.473 116.157C27.5669 117 26.66 117.552 25.7524 117.813C24.8372 118.074 23.98 118.088 23.1809 117.855C22.3779 117.626 21.6858 117.199 21.1048 116.574Z" fill="#FF5E55"></path> <path d="M16.224 108L24.3341 102.456L25.1152 103.599L17.0051 109.143L18.9465 111.983L17.9624 112.655L13.2716 105.793L14.3369 105.24L16.224 108Z" fill="#FF5E55"></path> <path d="M17.0649 94.9456L18.9557 98.8743L21.8675 98.4495L22.4608 99.6822L10.9803 101.23L10.2101 99.6297L18.5821 91.623L19.2135 92.9349L17.0649 94.9456ZM17.7615 99.0495L16.183 95.7696L11.6615 99.9522L17.7615 99.0495Z" fill="#FF5E55"></path> <path d="M16.5443 83.9337L13.0972 84.646L15.4424 87.2983L13.7012 88.8344L11.3624 86.2134L10.254 89.5467L8.04657 88.8264L9.14856 85.4618L5.70137 86.1741L5.22869 83.8864L8.67588 83.1742L6.33716 80.5532L8.07835 79.0171L10.4171 81.6381L11.5255 78.3048L13.7329 79.0251L12.6245 82.3583L16.0717 81.6461L16.5443 83.9337Z" fill="#FF5E55"></path> <path d="M12.1802 65.0682C12.7824 65.0915 13.2814 65.2308 13.6772 65.4863C14.0679 65.7362 14.3754 66.0656 14.5998 66.4746C14.8244 66.8782 14.9805 67.3273 15.0681 67.8217C15.1507 68.3106 15.1822 68.8081 15.1626 69.3144L15.0484 72.2722L4.04061 71.8472L4.14524 69.1372C4.16376 68.6576 4.22728 68.1877 4.33578 67.7275C4.43895 67.2672 4.60433 66.8546 4.83191 66.4897C5.05416 66.1247 5.34803 65.8398 5.71354 65.6351C6.07925 65.4251 6.53123 65.3304 7.0695 65.3512C7.54381 65.3695 7.94237 65.4837 8.26518 65.6936C8.58286 65.898 8.83423 66.1612 9.01927 66.4833C9.20452 66.8 9.33033 67.1358 9.39669 67.4906C9.48161 67.0883 9.62474 66.6988 9.82608 66.3223C10.0223 65.9403 10.3091 65.6311 10.6865 65.3948C11.0641 65.1532 11.562 65.0443 12.1802 65.0682ZM7.0865 66.7769C6.46297 66.7529 6.01312 66.9303 5.73696 67.3093C5.45567 67.6827 5.30217 68.2025 5.27645 68.8687L5.21317 70.5074L8.77852 70.6451L8.84704 68.8704C8.87215 68.2202 8.74749 67.7164 8.47308 67.3589C8.19355 66.9958 7.73136 66.8018 7.0865 66.7769ZM12.1717 66.533C11.6175 66.5116 11.1869 66.6044 10.88 66.8113C10.568 67.0128 10.3465 67.2898 10.2154 67.6423C10.0844 67.9949 10.0107 68.3843 9.9942 68.8106L9.92166 70.6892L13.9587 70.8451L14.0287 69.0305C14.0427 68.6681 14.009 68.2985 13.9274 67.9217C13.8406 67.5448 13.6634 67.2257 13.396 66.9645C13.1234 66.6978 12.7153 66.554 12.1717 66.533Z" fill="#FF5E55"></path> <path d="M4.81022 61.3972L8.83369 62.1646L9.02254 61.1745C9.27336 59.8595 9.74573 58.9343 10.4397 58.3988C11.1336 57.8634 12.015 57.6976 13.0837 57.9014C14.2572 58.1253 15.0677 58.63 15.515 59.4158C15.9572 60.2005 16.0608 61.2084 15.826 62.4396L15.3673 64.8442L4.54642 62.7803L4.81022 61.3972ZM6.15921 54.3247L16.9801 56.3887L16.7163 57.7717L5.8954 55.7078L6.15921 54.3247ZM10.0883 61.223L9.87099 62.3625L14.5388 63.2528L14.7592 62.0976C14.9001 61.359 14.8299 60.7592 14.5486 60.2983C14.263 59.8312 13.688 59.5152 12.8236 59.3504C11.2939 59.0586 10.3821 59.6828 10.0883 61.223Z" fill="#FF5E55"></path> <path d="M7.77767 48.9973C8.03748 48.2632 8.37734 47.6706 8.79724 47.2196C9.21389 46.7617 9.67656 46.4615 10.1852 46.3191C10.6907 46.1698 11.2098 46.1895 11.7428 46.3782C12.3813 46.6042 12.8135 46.9976 13.0393 47.5584C13.2619 48.1124 13.3102 48.6952 13.1842 49.3069C13.3774 48.8888 13.6413 48.5268 13.9759 48.2209C14.3072 47.9082 14.6982 47.6986 15.1489 47.5922C15.5996 47.4858 16.0939 47.5278 16.6318 47.7182C17.2502 47.9371 17.7489 48.2946 18.1277 48.7908C18.5083 49.2819 18.7369 49.8749 18.8135 50.5696C18.885 51.2625 18.7758 52.0187 18.4857 52.8382C18.2259 53.5723 17.8566 54.2081 17.3777 54.7458C16.9007 55.2785 16.3458 55.6875 15.713 55.9727L15.2746 54.9095C15.7707 54.6268 16.1979 54.283 16.5562 53.878C16.9146 53.473 17.1925 52.9915 17.39 52.4334C17.6765 51.624 17.7095 50.9313 17.489 50.3554C17.2653 49.7727 16.8292 49.3665 16.1806 49.137C15.4817 48.8896 14.8971 48.9429 14.4267 49.2969C13.9513 49.6492 13.5908 50.1722 13.3452 50.866L12.6939 52.7061L11.6387 52.1629L12.1992 50.5792C12.3362 50.1921 12.4074 49.8071 12.4128 49.4243C12.4132 49.0397 12.3275 48.6982 12.1559 48.3999C11.981 48.0947 11.6925 47.8709 11.2903 47.7286C10.7372 47.5328 10.2459 47.6022 9.81636 47.9367C9.3868 48.2712 9.05991 48.7552 8.83569 49.3887C8.63105 49.9669 8.5427 50.5042 8.57066 51.0007C8.59862 51.4971 8.69743 51.9932 8.8671 52.4888L7.82119 52.9503C7.57535 52.2862 7.44828 51.6302 7.43998 50.9823C7.42843 50.3276 7.54099 49.6659 7.77767 48.9973Z" fill="#FF5E55"></path> <path d="M20.8396 39.9953C21.3716 40.2786 21.76 40.6214 22.005 41.0238C22.2477 41.4189 22.381 41.8494 22.4049 42.3153C22.4312 42.7764 22.3761 43.2486 22.2397 43.7319C22.101 44.2079 21.9126 44.6695 21.6744 45.1167L20.2832 47.7293L10.5598 42.5516L11.8345 40.1578C12.0602 39.7341 12.322 39.3388 12.6201 38.9719C12.9135 38.6024 13.2421 38.3031 13.6059 38.0738C13.965 37.8421 14.3536 37.7137 14.7718 37.6886C15.1925 37.6589 15.6405 37.7706 16.116 38.0238C16.535 38.2469 16.844 38.5232 17.0431 38.8528C17.24 39.1752 17.3516 39.5216 17.3779 39.8921C17.4067 40.2579 17.3737 40.615 17.2788 40.9633C17.5305 40.6381 17.829 40.3499 18.1743 40.0987C18.5173 39.8403 18.9102 39.6869 19.3528 39.6386C19.7979 39.5857 20.2935 39.7046 20.8396 39.9953ZM15.5102 39.3145C14.9595 39.0212 14.4772 38.985 14.0636 39.2058C13.6477 39.4194 13.2831 39.8204 12.9698 40.4088L12.1989 41.8564L15.3482 43.5334L16.183 41.9658C16.4888 41.3915 16.5961 40.8837 16.5048 40.4423C16.4114 39.9938 16.0798 39.6178 15.5102 39.3145ZM20.1939 41.3101C19.7043 41.0494 19.2763 40.9454 18.9099 40.998C18.5413 41.0434 18.2212 41.1962 17.9497 41.4565C17.6782 41.7167 17.4422 42.0352 17.2416 42.4118L16.358 44.0711L19.9239 45.97L20.7775 44.3671C20.9479 44.047 21.0785 43.6997 21.1693 43.325C21.2553 42.9479 21.2348 42.5835 21.1079 42.2319C20.9787 41.8731 20.674 41.5658 20.1939 41.3101Z" fill="#FF5E55"></path> <path d="M25.4113 34.3101L22.8081 37.8076L24.5352 40.1901L23.7184 41.2875L17.0214 31.8351L18.0818 30.4105L29.0586 34.1128L28.1893 35.2807L25.4113 34.3101ZM22.0989 36.831L24.2722 33.9111L18.4695 31.8459L22.0989 36.831Z" fill="#FF5E55"></path> <path d="M25.497 23.9051L32.4183 30.8769L31.4361 31.852L24.5148 24.8802L22.0735 27.3037L21.2337 26.4578L27.1325 20.6017L27.8701 21.5491L25.497 23.9051Z" fill="#FF5E55"></path> <path d="M30.3409 18.1235L32.753 21.4141L34.0886 20.4351C35.1597 19.65 36.1599 19.2508 37.0891 19.2375C38.0196 19.2167 38.8363 19.686 39.5395 20.6452C40.044 21.3334 40.3023 21.9971 40.3145 22.6362C40.3278 23.2679 40.1458 23.8675 39.7683 24.4351C39.3909 25.0028 38.8688 25.5309 38.2021 26.0197L35.7374 27.8264L29.2247 18.9417L30.3409 18.1235ZM34.8962 21.212L33.4057 22.3045L36.1867 26.0984L37.6707 25.0106C38.0665 24.7205 38.3835 24.4088 38.6218 24.0753C38.8613 23.7345 38.9711 23.3565 38.9511 22.9413C38.9311 22.5261 38.7303 22.0583 38.3488 21.5378C38.0146 21.0818 37.6557 20.7862 37.2721 20.6508C36.8896 20.5079 36.4988 20.4935 36.0997 20.6075C35.6974 20.7172 35.2962 20.9187 34.8962 21.212Z" fill="#FF5E55"></path> <path d="M45.3544 9.18179C46.0132 8.89145 46.6013 8.73139 47.1185 8.70161C47.6358 8.67183 48.1655 8.72982 48.7076 8.87558L48.362 10.0157C47.9265 9.88711 47.5059 9.84517 47.1002 9.88992C46.6971 9.92764 46.3029 10.0314 45.9173 10.2014C45.3658 10.4444 44.9139 10.8009 44.5615 11.2709C44.2069 11.736 44.019 12.3346 43.9978 13.0667C43.9793 13.7917 44.1969 14.6692 44.6507 15.6989C45.0916 16.6994 45.5796 17.4431 46.1147 17.93C46.6547 18.4148 47.2156 18.6892 47.7976 18.7533C48.3795 18.8174 48.956 18.7236 49.527 18.472C50.0882 18.2247 50.5143 17.935 50.805 17.6028C51.1007 17.2686 51.3319 16.9336 51.4986 16.5978L52.5253 17.142C52.349 17.5752 52.0628 18.0102 51.6666 18.4471C51.2683 18.879 50.7105 19.2531 49.993 19.5692C49.1731 19.9306 48.3466 20.0587 47.5135 19.9538C46.6783 19.8439 45.897 19.4859 45.1694 18.8798C44.4419 18.2738 43.8298 17.407 43.333 16.2796C42.834 15.1474 42.6098 14.1096 42.6605 13.1665C42.7138 12.2163 42.9815 11.4018 43.4634 10.7232C43.9432 10.0397 44.5735 9.5259 45.3544 9.18179Z" fill="#FF5E55"></path> <path d="M58.9267 16.4946L56.3613 7.02802L52.3461 8.11611L54.9115 17.5827L53.5757 17.9447L50.6943 7.31216L57.3812 5.50007L60.2625 16.1326L58.9267 16.4946Z" fill="#FF5E55"></path> <path d="M62.5051 5.84727L62.9334 9.53449L66.9861 9.06377L67.1181 10.2001L63.0654 10.6708L63.5167 14.5567L68.4913 13.9789L68.6196 15.0835L62.2623 15.8219L60.9913 4.87946L67.2056 4.15769L67.1777 5.30456L62.5051 5.84727Z" fill="#FF5E55"></path> <path d="M70.5053 15.0496L70.9303 4.04184L72.3133 4.09524L71.9327 13.9519L76.0896 14.1124L76.4702 4.25575L77.8532 4.30915L77.4281 15.3169L70.5053 15.0496ZM78.4561 14.1958L78.3206 17.7052L77.2255 17.6629L77.0764 15.3034L76.7326 15.2901L76.8813 14.135L78.4561 14.1958Z" fill="#FF5E55"></path> <path d="M78.9973 15.53L81.0613 4.70909L82.4129 4.9669L81.3697 10.4363C81.2478 11.0754 81.1314 11.6288 81.0205 12.0963C80.9148 12.5648 80.8062 12.992 80.6946 13.3779C80.5892 13.7596 80.4745 14.1476 80.3504 14.542L86.1142 5.67287L87.8666 6.00712L85.8026 16.828L84.451 16.5702L85.4957 11.093C85.6536 10.2652 85.8216 9.51271 85.9996 8.83541C86.1839 8.15387 86.3523 7.56975 86.5049 7.08305L80.7733 15.8688L78.9973 15.53Z" fill="#FF5E55"></path> <path d="M93.5648 16.5099L89.4546 15.0551L87.6882 17.4086L86.3986 16.9521L93.4528 7.76325L95.127 8.35583L94.83 19.9364L93.4574 19.4506L93.5648 16.5099ZM90.1784 14.0892L93.6098 15.3038L93.87 9.14993L90.1784 14.0892Z" fill="#FF5E55"></path> <path d="M106.4 13.7135L101.222 23.4368L100.001 22.7863L104.618 14.1151L101.999 12.7201L100.126 15.4206C99.5337 16.2596 99.0184 16.955 98.5796 17.5068C98.1407 18.0586 97.7488 18.4995 97.4039 18.8294C97.059 19.1593 96.7376 19.4112 96.4397 19.5848C96.1443 19.7538 95.8477 19.8738 95.5501 19.9449C95.2596 20.0138 94.9409 20.0677 94.5939 20.1065L94.5423 18.9098C94.7679 18.8607 94.9939 18.7938 95.2203 18.7089C95.4515 18.6266 95.7144 18.4675 96.0092 18.2317C96.304 17.9959 96.664 17.6318 97.0894 17.1393C97.5149 16.6467 98.0394 15.9623 98.6632 15.086L101.493 11.1002L106.4 13.7135Z" fill="#FF5E55"></path> <path d="M102.572 24.3315L109.149 15.4946L110.253 16.3161L106.928 20.7827C106.54 21.3047 106.194 21.7518 105.89 22.1241C105.591 22.4996 105.307 22.8367 105.038 23.1352C104.776 23.4327 104.504 23.7319 104.22 24.0326L113.275 18.5659L114.707 19.6311L108.129 28.468L107.025 27.6464L110.355 23.1734C110.858 22.4974 111.337 21.8935 111.793 21.3617C112.256 20.8288 112.662 20.3767 113.012 20.0053L104.022 25.411L102.572 24.3315Z" fill="#FF5E55"></path> <path d="M120.316 24.7449C120.823 25.2558 121.184 25.7474 121.397 26.2196C121.61 26.6918 121.746 27.2071 121.804 27.7654L120.616 27.8516C120.58 27.3989 120.468 26.9912 120.281 26.6285C120.101 26.2658 119.863 25.935 119.566 25.6359C119.142 25.2083 118.647 24.9142 118.082 24.7537C117.52 24.5895 116.894 24.6287 116.203 24.8714C115.52 25.114 114.778 25.6318 113.98 26.4246C113.204 27.1949 112.685 27.9171 112.422 28.5912C112.163 29.2691 112.108 29.8911 112.257 30.4573C112.406 31.0236 112.7 31.5281 113.139 31.9709C113.572 32.4062 113.995 32.7 114.409 32.8524C114.827 33.0085 115.223 33.1042 115.596 33.1395L115.456 34.293C114.988 34.2838 114.48 34.1726 113.93 33.9594C113.384 33.7424 112.835 33.3558 112.282 32.7994C111.651 32.1635 111.235 31.4379 111.034 30.6226C110.837 29.8035 110.891 28.9458 111.196 28.0493C111.501 27.1529 112.091 26.2706 112.965 25.4027C113.843 24.5309 114.732 23.9496 115.63 23.6587C116.537 23.3678 117.393 23.3257 118.199 23.5323C119.009 23.7351 119.715 24.1393 120.316 24.7449Z" fill="#FF5E55"></path> <path d="M125.506 33.158L117.583 38.9659L116.765 37.8497L124.688 32.0417L122.654 29.2673L123.616 28.5626L128.53 35.2664L127.483 35.855L125.506 33.158Z" fill="#FF5E55"></path> <path d="M125.14 46.273L123.12 42.4095L120.223 42.9312L119.589 41.719L131.012 39.7891L131.835 41.3628L123.735 49.6444L123.06 48.3542L125.14 46.273ZM124.307 42.1946L125.994 45.42L130.374 41.089L124.307 42.1946Z" fill="#FF5E55"></path> <path d="M125.976 57.0062L129.394 56.1632L126.949 53.6021L128.63 52.0008L131.067 54.5308L132.048 51.1578L134.281 51.7934L133.308 55.1975L136.726 54.3545L137.285 56.6225L133.868 57.4655L136.305 59.9955L134.623 61.5968L132.186 59.0668L131.206 62.4399L128.972 61.8042L129.953 58.4312L126.535 59.2742L125.976 57.0062Z" fill="#FF5E55"></path> <circle cx="72" cy="72" r="10" fill="#FF5E55"></circle> </svg> 