<?xml version="1.0" encoding="UTF-8"?> <svg xmlns="http://www.w3.org/2000/svg" width="150" height="150" viewBox="0 0 150 150" fill="none"> <path d="M75 1.49422L82.8717 10.2339L83.4431 10.8683L84.1592 10.4034L94.0247 3.99887L99.3662 14.4781L99.7539 15.2388L100.566 14.9751L111.753 11.3421L114.2 22.8467L114.378 23.6819L115.23 23.6373L126.976 23.0236L126.363 34.7696L126.318 35.6222L127.153 35.7999L138.658 38.2471L135.025 49.434L134.761 50.2461L135.522 50.6338L146.001 55.9753L139.597 65.8408L139.132 66.5569L139.766 67.1283L148.506 75L139.766 82.8717L139.132 83.4431L139.597 84.1592L146.001 94.0247L135.522 99.3662L134.761 99.7539L135.025 100.566L138.658 111.753L127.153 114.2L126.318 114.378L126.363 115.23L126.976 126.976L115.23 126.363L114.378 126.318L114.2 127.153L111.753 138.658L100.566 135.025L99.7539 134.761L99.3662 135.522L94.0247 146.001L84.1592 139.597L83.4431 139.132L82.8717 139.766L75 148.506L67.1283 139.766L66.5569 139.132L65.8408 139.597L55.9753 146.001L50.6338 135.522L50.2461 134.761L49.434 135.025L38.2471 138.658L35.7999 127.153L35.6222 126.318L34.7696 126.363L23.0236 126.976L23.6373 115.23L23.6819 114.378L22.8467 114.2L11.3421 111.753L14.9751 100.566L15.2388 99.7539L14.4781 99.3662L3.99887 94.0247L10.4034 84.1592L10.8683 83.4431L10.2339 82.8717L1.49422 75L10.2339 67.1283L10.8683 66.5569L10.4034 65.8408L3.99887 55.9753L14.4781 50.6338L15.2388 50.2461L14.9751 49.434L11.3421 38.2471L22.8467 35.7999L23.6819 35.6222L23.6373 34.7696L23.0236 23.0236L34.7696 23.6373L35.6222 23.6819L35.7999 22.8467L38.2471 11.3421L49.434 14.9751L50.2461 15.2388L50.6338 14.4781L55.9753 3.99887L65.8408 10.4034L66.5569 10.8683L67.1283 10.2339L75 1.49422Z" stroke="#FF5147" stroke-width="2"></path> </svg> 