<?xml version="1.0" encoding="UTF-8"?> <svg xmlns="http://www.w3.org/2000/svg" width="1400" height="1604" viewBox="0 0 1400 1604" fill="none"> <path d="M893.398 680.006L893.404 680.235L893.581 680.381L908.333 692.484L905.08 711.248L905.041 711.474L905.186 711.651L917.316 726.395L910.471 744.141L910.388 744.355L910.497 744.558L919.537 761.375L909.365 777.422L909.242 777.616L909.309 777.836L914.913 796.081L901.804 809.811L901.644 809.978L901.668 810.208L903.62 829.178L888.078 840.065L887.889 840.198L887.868 840.428L886.094 859.394L868.716 867.02L868.504 867.113L868.438 867.335L863.006 885.57L844.461 889.641L844.234 889.691L844.126 889.896L835.246 906.698L816.245 907.059L816.013 907.063L815.866 907.243L803.878 921.967L785.152 918.604L784.924 918.563L784.745 918.71L770.11 930.79L752.377 923.832L752.162 923.747L751.958 923.857L735.237 932.829L719.18 922.542L718.985 922.417L718.765 922.485L700.601 928.004L686.836 914.784L686.67 914.624L686.441 914.647L667.533 916.502L656.589 900.856L656.457 900.667L656.229 900.645L637.302 898.763L629.601 881.293L629.509 881.083L629.289 881.016L611.072 875.47L606.91 856.847L606.86 856.623L606.658 856.515L589.849 847.517L589.386 828.457L589.381 828.228L589.204 828.083L574.451 815.979L577.704 797.216L577.744 796.99L577.598 796.813L565.469 782.069L572.313 764.323L572.396 764.108L572.287 763.906L563.247 747.088L573.419 731.042L573.543 730.847L573.475 730.627L567.871 712.383L580.98 698.652L581.14 698.486L581.116 698.256L579.164 679.286L594.706 668.399L594.895 668.266L594.917 668.036L596.691 649.069L614.068 641.443L614.28 641.35L614.346 641.128L619.778 622.894L638.323 618.822L638.55 618.772L638.658 618.567L647.539 601.766L666.539 601.405L666.771 601.4L666.918 601.22L678.906 586.497L697.632 589.86L697.86 589.901L698.039 589.753L712.674 577.673L730.407 584.632L730.623 584.716L730.826 584.607L747.547 575.634L763.604 585.922L763.799 586.046L764.02 585.979L782.183 580.459L795.948 593.68L796.114 593.839L796.343 593.817L815.252 591.962L826.195 607.608L826.327 607.796L826.555 607.819L845.482 609.701L853.183 627.171L853.276 627.381L853.495 627.448L871.713 632.994L875.875 651.617L875.925 651.841L876.127 651.949L892.935 660.947L893.398 680.006Z" stroke="#ADADAD" stroke-opacity="0.15"></path> <path d="M936.365 641.698L936.367 641.956L936.578 642.105L954.458 654.697L951.486 676.263L951.451 676.519L951.639 676.695L967.601 691.696L961.608 712.565L961.537 712.814L961.699 713.016L975.417 730.12L966.526 749.866L966.419 750.103L966.552 750.327L977.746 769.185L966.139 787.407L965.999 787.628L966.099 787.869L974.543 808.096L960.455 824.424L960.284 824.623L960.35 824.877L965.871 846.061L949.591 860.163L949.391 860.335L949.421 860.598L951.908 882.308L933.766 893.896L933.543 894.039L933.536 894.304L932.937 916.098L913.304 924.938L913.062 925.047L913.017 925.31L909.347 946.744L888.621 952.656L888.364 952.729L888.282 952.983L881.615 973.622L860.218 976.486L859.953 976.522L859.836 976.762L850.308 996.185L828.675 995.943L828.408 995.94L828.257 996.161L816.062 1013.97L794.633 1010.63L794.369 1010.59L794.188 1010.79L779.575 1026.63L758.784 1020.25L758.53 1020.17L758.323 1020.34L741.588 1033.89L721.86 1024.61L721.62 1024.49L721.392 1024.63L702.875 1035.6L684.611 1023.61L684.391 1023.46L684.147 1023.56L664.224 1031.75L647.796 1017.28L647.599 1017.1L647.345 1017.17L626.422 1022.39L612.165 1005.74L611.995 1005.54L611.735 1005.57L590.238 1007.72L578.443 989.235L578.303 989.016L578.044 989.004L556.409 988.048L547.317 968.097L547.209 967.862L546.955 967.813L525.624 963.764L519.42 942.757L519.346 942.509L519.102 942.425L498.509 935.365L495.32 913.729L495.282 913.474L495.053 913.357L475.618 903.43L475.508 881.607L475.507 881.349L475.296 881.2L457.415 868.608L460.387 847.042L460.422 846.786L460.234 846.61L444.273 831.608L450.265 810.74L450.337 810.491L450.175 810.289L436.457 793.185L445.348 773.438L445.454 773.201L445.322 772.978L434.127 754.12L445.735 735.897L445.875 735.677L445.774 735.436L437.331 715.209L451.418 698.881L451.59 698.682L451.524 698.428L446.003 677.244L462.283 663.142L462.482 662.969L462.452 662.707L459.966 640.997L478.107 629.409L478.331 629.266L478.338 629.001L478.936 607.207L498.569 598.367L498.812 598.258L498.857 597.995L502.527 576.561L523.253 570.649L523.509 570.576L523.591 570.322L530.258 549.683L551.655 546.819L551.92 546.783L552.038 546.543L561.565 527.119L583.199 527.361L583.466 527.364L583.617 527.144L595.811 509.33L617.241 512.674L617.505 512.715L617.686 512.519L632.299 496.677L653.089 503.055L653.344 503.133L653.55 502.965L670.286 489.418L690.014 498.7L690.254 498.813L690.482 498.677L708.999 487.7L727.263 499.698L727.483 499.843L727.727 499.743L747.65 491.559L764.077 506.03L764.274 506.203L764.529 506.139L785.452 500.916L799.709 517.565L799.878 517.763L800.138 517.737L821.636 515.581L833.431 534.07L833.57 534.289L833.83 534.3L855.465 535.256L864.557 555.208L864.664 555.443L864.919 555.492L886.25 559.54L892.454 580.548L892.527 580.796L892.771 580.88L913.364 587.939L916.554 609.575L916.591 609.831L916.821 609.948L936.256 619.875L936.365 641.698Z" stroke="#ADADAD" stroke-opacity="0.15"></path> <path d="M984.233 577.445L984.242 577.689L984.441 577.831L1003.59 591.592L1001.77 615.121L1001.75 615.364L1001.93 615.529L1019.35 631.422L1014.81 654.588L1014.76 654.828L1014.92 655.012L1030.37 672.822L1023.16 695.313L1023.08 695.545L1023.22 695.747L1036.49 715.233L1026.72 736.744L1026.62 736.966L1026.73 737.182L1037.64 758.081L1025.44 778.322L1025.31 778.53L1025.4 778.758L1033.8 800.787L1019.33 819.483L1019.18 819.675L1019.24 819.911L1025.02 842.773L1008.48 859.671L1008.31 859.845L1008.34 860.086L1011.42 883.472L993.035 898.344L992.846 898.497L992.85 898.74L993.191 922.332L973.204 934.977L972.999 935.107L972.974 935.348L970.57 958.829L949.255 969.075L949.036 969.181L948.983 969.418L943.866 992.468L921.511 1000.18L921.281 1000.26L921.201 1000.49L913.44 1022.8L890.347 1027.86L890.11 1027.92L890.004 1028.13L879.705 1049.4L856.186 1051.76L855.945 1051.78L855.814 1051.99L843.115 1071.92L819.489 1071.54L819.247 1071.54L819.093 1071.73L804.167 1090.06L780.753 1086.94L780.512 1086.91L780.338 1087.08L763.386 1103.57L740.501 1097.75L740.265 1097.69L740.073 1097.84L721.324 1112.26L699.277 1103.83L699.05 1103.74L698.842 1103.87L678.55 1116.02L657.64 1105.08L657.425 1104.97L657.203 1105.07L635.643 1114.79L616.152 1101.51L615.951 1101.37L615.719 1101.44L593.182 1108.6L575.374 1093.14L575.19 1092.98L574.951 1093.03L551.742 1097.53L535.858 1080.1L535.694 1079.92L535.451 1079.94L511.884 1081.72L498.137 1062.57L497.995 1062.37L497.752 1062.36L474.145 1061.4L462.723 1040.77L462.605 1040.56L462.364 1040.52L439.038 1036.83L430.094 1015.01L430.002 1014.79L429.767 1014.72L407.035 1008.35L400.691 985.635L400.626 985.4L400.4 985.307L378.571 976.337L374.912 953.038L374.874 952.797L374.661 952.678L354.03 941.236L353.106 917.662L353.096 917.418L352.898 917.276L333.744 903.515L335.567 879.986L335.586 879.742L335.405 879.578L317.987 863.685L322.533 840.518L322.58 840.279L322.42 840.094L306.972 822.285L314.179 799.794L314.254 799.561L314.116 799.36L300.849 779.874L310.62 758.363L310.72 758.141L310.608 757.924L299.7 737.025L311.902 716.785L312.028 716.576L311.941 716.349L303.54 694.32L318.009 675.624L318.158 675.431L318.099 675.195L312.318 652.334L328.859 635.435L329.029 635.261L328.997 635.02L325.916 611.635L344.303 596.763L344.492 596.61L344.489 596.367L344.148 572.775L364.135 560.13L364.34 560L364.365 559.758L366.769 536.278L388.084 526.031L388.303 525.926L388.356 525.689L393.473 502.638L415.828 494.929L416.058 494.849L416.137 494.62L423.898 472.311L446.991 467.242L447.228 467.19L447.334 466.972L457.634 445.705L481.152 443.347L481.394 443.322L481.524 443.118L494.223 423.182L517.849 423.565L518.092 423.569L518.245 423.381L533.172 405.045L556.586 408.164L556.826 408.196L557 408.027L573.953 391.54L596.838 397.354L597.073 397.414L597.266 397.266L616.015 382.85L638.061 391.279L638.288 391.366L638.497 391.241L658.788 379.092L679.699 390.022L679.914 390.135L680.136 390.035L701.696 380.316L721.187 393.6L721.388 393.737L721.62 393.664L744.157 386.507L761.965 401.965L762.149 402.124L762.388 402.078L785.596 397.58L801.481 415.003L801.645 415.183L801.888 415.165L825.455 413.386L839.201 432.538L839.343 432.736L839.587 432.746L863.193 433.711L874.615 454.333L874.734 454.547L874.975 454.585L898.301 458.28L907.245 480.094L907.337 480.32L907.572 480.386L930.303 486.761L936.647 509.471L936.713 509.707L936.939 509.799L958.768 518.769L962.426 542.069L962.464 542.31L962.678 542.428L983.309 553.871L984.233 577.445Z" stroke="#ADADAD" stroke-opacity="0.15"></path> <path d="M1040.83 554.018L1040.83 554.292L1041.06 554.44L1064.08 569.203L1061.17 596.404L1061.14 596.677L1061.35 596.848L1082.7 613.938L1076.96 640.689L1076.9 640.957L1077.1 641.15L1096.54 660.378L1088.04 686.388L1087.95 686.648L1088.12 686.86L1105.44 708.016L1094.27 732.999L1094.15 733.249L1094.3 733.477L1109.32 756.33L1095.59 780.012L1095.45 780.249L1095.58 780.492L1108.11 804.79L1091.98 826.912L1091.82 827.133L1091.92 827.388L1101.85 852.866L1083.49 873.185L1083.31 873.388L1083.38 873.651L1090.59 900.03L1070.21 918.324L1070.01 918.506L1070.05 918.776L1074.46 945.767L1052.28 961.834L1052.06 961.994L1052.08 962.267L1053.63 989.574L1029.9 1003.24L1029.67 1003.38L1029.65 1003.65L1028.35 1030.97L1003.32 1042.09L1003.07 1042.2L1003.03 1042.47L998.869 1069.51L972.822 1077.95L972.562 1078.03L972.492 1078.3L965.527 1104.76L938.744 1110.43L938.477 1110.49L938.38 1110.74L928.686 1136.34L901.459 1139.18L901.188 1139.21L901.065 1139.46L888.748 1163.9L861.377 1163.89L861.104 1163.89L860.956 1164.12L846.152 1187.14L818.935 1184.27L818.664 1184.24L818.493 1184.45L801.363 1205.81L774.6 1200.11L774.333 1200.06L774.141 1200.25L754.874 1219.7L728.857 1211.24L728.597 1211.15L728.386 1211.33L707.192 1228.66L682.207 1217.53L681.958 1217.42L681.729 1217.57L658.841 1232.6L635.162 1218.91L634.925 1218.77L634.682 1218.9L610.35 1231.46L588.236 1215.37L588.014 1215.21L587.76 1215.31L562.251 1225.26L541.943 1206.95L541.74 1206.76L541.476 1206.83L515.07 1214.07L496.792 1193.73L496.609 1193.53L496.339 1193.57L469.325 1198.01L453.276 1175.87L453.116 1175.65L452.842 1175.67L425.516 1177.26L411.873 1153.56L411.736 1153.32L411.463 1153.31L384.124 1152.04L373.036 1127.05L372.925 1126.8L372.654 1126.75L345.602 1122.63L337.19 1096.62L337.106 1096.35L336.841 1096.29L310.372 1089.36L304.729 1062.6L304.672 1062.33L304.416 1062.24L278.82 1052.58L276.007 1025.38L275.979 1025.11L275.735 1024.98L251.292 1012.71L251.341 985.357L251.341 985.083L251.111 984.935L228.089 970.172L230.999 942.97L231.028 942.698L230.814 942.527L209.466 925.437L215.204 898.686L215.262 898.418L215.067 898.225L195.627 878.997L204.131 852.987L204.216 852.727L204.043 852.515L186.722 831.359L197.9 806.376L198.012 806.126L197.861 805.897L182.851 783.045L196.579 759.363L196.716 759.126L196.591 758.883L184.055 734.585L200.183 712.463L200.344 712.242L200.245 711.987L190.321 686.509L208.672 666.19L208.856 665.987L208.784 665.724L201.581 639.345L221.954 621.051L222.158 620.869L222.114 620.599L217.71 593.608L239.883 577.541L240.104 577.381L240.089 577.108L238.533 549.801L262.262 536.136L262.499 535.999L262.512 535.726L263.821 508.403L288.846 497.289L289.096 497.178L289.137 496.908L293.298 469.868L319.344 461.427L319.604 461.343L319.674 461.079L326.639 434.617L353.423 428.943L353.69 428.886L353.787 428.631L363.481 403.038L390.707 400.192L390.979 400.163L391.102 399.919L403.418 375.475L430.79 375.489L431.063 375.489L431.21 375.259L446.015 352.232L473.231 355.104L473.502 355.133L473.673 354.92L490.803 333.563L517.566 339.263L517.833 339.32L518.025 339.125L537.293 319.672L563.309 328.137L563.569 328.221L563.78 328.048L584.974 310.711L609.959 321.848L610.209 321.96L610.437 321.81L633.325 306.779L657.005 320.467L657.241 320.604L657.484 320.478L681.816 307.919L703.931 324.007L704.152 324.168L704.407 324.068L729.915 314.118L750.223 332.43L750.426 332.613L750.69 332.541L777.096 325.308L795.374 345.644L795.557 345.847L795.827 345.803L822.842 341.367L838.89 363.503L839.051 363.725L839.324 363.709L866.65 362.119L880.293 385.813L880.43 386.05L880.703 386.063L908.043 387.336L919.13 412.329L919.241 412.579L919.512 412.62L946.565 416.742L954.976 442.76L955.06 443.02L955.325 443.09L981.795 450.015L987.437 476.772L987.494 477.04L987.75 477.137L1013.35 486.791L1016.16 513.995L1016.19 514.267L1016.43 514.39L1040.87 526.666L1040.83 554.018Z" stroke="#ADADAD" stroke-opacity="0.15"></path> <path d="M1123.28 530.946L1123.28 531.22L1123.51 531.368L1152.49 549.981L1148.85 584.239L1148.83 584.51L1149.04 584.682L1175.92 606.223L1168.72 639.913L1168.66 640.18L1168.86 640.372L1193.34 664.606L1182.66 697.358L1182.58 697.618L1182.75 697.83L1204.57 724.491L1190.52 755.946L1190.41 756.196L1190.56 756.425L1209.47 785.22L1192.21 815.035L1192.07 815.272L1192.2 815.515L1208 846.129L1187.72 873.977L1187.56 874.198L1187.66 874.453L1200.17 906.551L1177.09 932.126L1176.9 932.329L1176.98 932.593L1186.06 965.822L1160.44 988.845L1160.23 989.028L1160.28 989.298L1165.84 1023.3L1137.95 1043.51L1137.73 1043.67L1137.74 1043.95L1139.72 1078.34L1109.87 1095.53L1109.63 1095.67L1109.62 1095.94L1107.99 1130.35L1076.5 1144.33L1076.25 1144.44L1076.21 1144.71L1071 1178.76L1038.22 1189.37L1037.96 1189.46L1037.89 1189.72L1029.15 1223.04L995.443 1230.17L995.176 1230.22L995.079 1230.48L982.899 1262.7L948.634 1266.27L948.362 1266.29L948.239 1266.54L932.757 1297.31L898.307 1297.28L898.034 1297.28L897.886 1297.51L879.272 1326.49L845.015 1322.85L844.743 1322.83L844.572 1323.04L823.03 1349.92L789.341 1342.72L789.073 1342.66L788.881 1342.86L764.647 1367.34L731.895 1356.66L731.635 1356.58L731.423 1356.75L704.763 1378.57L673.307 1364.52L673.057 1364.41L672.829 1364.56L644.034 1383.47L614.218 1366.21L613.982 1366.07L613.739 1366.2L583.124 1382L555.277 1361.72L555.056 1361.56L554.801 1361.66L522.703 1374.17L497.128 1351.09L496.925 1350.9L496.661 1350.98L463.431 1360.06L440.408 1334.44L440.226 1334.23L439.956 1334.28L405.958 1339.84L385.74 1311.95L385.58 1311.73L385.307 1311.74L350.914 1313.72L333.722 1283.87L333.586 1283.63L333.313 1283.62L298.901 1281.99L284.925 1250.5L284.814 1250.25L284.543 1250.21L250.49 1245L239.882 1212.22L239.797 1211.96L239.533 1211.89L206.211 1203.15L199.087 1169.44L199.03 1169.18L198.774 1169.08L166.549 1156.9L162.987 1122.63L162.958 1122.36L162.714 1122.24L131.939 1106.76L131.978 1072.31L131.978 1072.03L131.748 1071.89L102.759 1053.27L106.399 1019.01L106.428 1018.74L106.215 1018.57L79.3305 997.03L86.5313 963.341L86.5886 963.073L86.3942 962.881L61.9091 938.647L72.5918 905.895L72.6766 905.635L72.5033 905.423L50.6855 878.763L64.7332 847.307L64.8448 847.057L64.6946 846.829L45.7832 818.033L63.0419 788.218L63.179 787.982L63.0535 787.739L47.2556 757.124L67.5364 729.277L67.6974 729.056L67.598 728.801L55.0866 696.703L78.1672 671.128L78.3505 670.925L78.2783 670.661L69.1906 637.431L94.8181 614.408L95.0215 614.226L94.9774 613.956L89.4129 579.958L117.307 559.74L117.528 559.58L117.512 559.307L115.532 524.914L145.386 507.722L145.623 507.586L145.636 507.313L147.262 472.901L178.749 458.925L178.999 458.814L179.041 458.543L184.254 424.49L217.03 413.881L217.291 413.797L217.36 413.533L226.105 380.211L259.81 373.087L260.078 373.03L260.174 372.774L272.354 340.549L306.62 336.987L306.892 336.959L307.015 336.714L322.496 305.939L356.946 305.978L357.22 305.978L357.368 305.748L375.981 276.759L410.238 280.399L410.51 280.428L410.682 280.215L432.223 253.331L465.912 260.531L466.18 260.589L466.372 260.394L490.606 235.909L523.358 246.592L523.618 246.677L523.83 246.503L550.491 224.686L581.946 238.733L582.196 238.845L582.425 238.695L611.22 219.783L641.035 237.042L641.272 237.179L641.515 237.054L672.129 221.256L699.977 241.536L700.198 241.697L700.453 241.598L732.551 229.087L758.126 252.167L758.329 252.351L758.593 252.278L791.822 243.191L814.845 268.818L815.028 269.022L815.298 268.977L849.295 263.413L869.513 291.307L869.674 291.528L869.947 291.512L904.34 289.532L921.531 319.386L921.667 319.623L921.941 319.636L956.352 321.262L970.329 352.749L970.44 352.999L970.71 353.041L1004.76 358.254L1015.37 391.03L1015.46 391.291L1015.72 391.36L1049.04 400.105L1056.17 433.81L1056.22 434.078L1056.48 434.174L1088.7 446.354L1092.27 480.62L1092.29 480.892L1092.54 481.015L1123.31 496.496L1123.28 530.946Z" stroke="#ADADAD" stroke-opacity="0.15"></path> </svg> 